 http://www.imdb.com/title/tt1706317/

Cover: 
http://www.shotpix.com/images/02554922342608796214.jpg

Format : MKV
Format/Info : Advanced Video Codec
Format profile : High@L3.1
Format settings, CABAC : Yes
Format settings, ReFrames : 5 frames
Codec ID : V_MPEG4/ISO/AVC
Duration : 2h 1mn
Bit rate : 1 500 Kbps
Width : 1 280 pixels
Height : 544 pixels
Display aspect ratio : 2.35:1
Frame rate mode : Constant
Frame rate : 23.976 fps
Color space : YUV
Chroma subsampling : 4:2:0
Bit depth : 8 bits
Scan type : Progressive
Bits/(Pixel*Frame) : 0.090
Stream size : 1.25 GiB (87%)


Audio
ID : 2
Format : AC-3
Format/Info : Audio Coding 3
Mode extension : CM (complete main)
Format settings, Endianness : Big
Codec ID : A_AC3
Duration : 2h 1mn
Bit rate mode : Constant
Bit rate : 192 Kbps
Channel(s) : 6 channels
Channel positions : Front: L C R, Side: L R, LFE
Sampling rate : 48.0 KHz
Bit depth : 16 bits
Compression mode : Lossy
Stream size : 167 MiB (11%)
Language : Hindi
Sub : English
 
http://www.shotpix.com/images/06057732974649671783.png
 
http://www.shotpix.com/images/86328750432019370865.png
 
http://www.shotpix.com/images/02190310374573204660.png
 
http://www.shotpix.com/images/69258531167782808609.png
 
http://www.shotpix.com/images/17626264381844470651.png
 
http://www.shotpix.com/images/40960884950178957566.png